# xmcd CD database file
#
# Track frame offsets:
#	150
#	5289
#	18723
#	38192
#	64573
#	79258
#	101798
#	122871
#	145320
#	166146
#	181845
#	201426
#
# Disc length: 3240 seconds
#
# Revision: 0
# Processed by: cddbd v1.4PL0 Copyright (c) Steve Scherf et al.
# Submitted via: CDex 1.50Beta7
#
DISCID=a10ca60c
DTITLE=Swinger Club - Welthits Als Jazz
DYEAR=2001
DGENRE=Jazz
TTITLE0=Jump
TTITLE1=Money, Money, Money
TTITLE2=Jeans On
TTITLE3=Fly Robin Fly
TTITLE4=Heart Of Glass
TTITLE5=Summer In The City
TTITLE6=Burning Down The House
TTITLE7=Daddy Cool
TTITLE8=Baby You Can Drive My Car
TTITLE9=Dancerama
TTITLE10=Sweet Dreams
TTITLE11=Starwars Theme
EXTD=YEAR: 2001
EXTT0=
EXTT1=
EXTT2=
EXTT3=
EXTT4=
EXTT5=
EXTT6=
EXTT7=
EXTT8=
EXTT9=
EXTT10=
EXTT11=
PLAYORDER=
